<svg xmlns="http://www.w3.org/2000/svg" viewBox="0 0 100 100" version="1.0"><defs><clipPath id="a"><path d="M 112.5 143.867188 L 262.5 143.867188 L 262.5 259.367188 L 112.5 259.367188 Z M 112.5 143.867188"/></clipPath><clipPath id="b"><path d="M 138.53125 228.523438 L 236.78125 228.523438 L 236.78125 241.757812 L 138.53125 241.757812 Z M 138.53125 228.523438"/></clipPath></defs><g clip-path="url(#a)"><path d="M 247.5 145.207031 L 247.5 235.371094 C 247.5 236.441406 246.257812 237.03125 245.425781 236.355469 L 237.011719 229.507812 L 222.101562 217.375 L 192.554688 193.332031 C 192.328125 193.148438 192.046875 193.046875 191.753906 193.046875 L 183.246094 193.046875 C 182.953125 193.046875 182.671875 193.148438 182.445312 193.332031 L 152.898438 217.375 L 137.988281 229.507812 L 129.570312 236.355469 C 128.742188 237.03125 127.5 236.441406 127.5 235.371094 L 127.5 145.207031 C 127.5 144.503906 126.929688 143.9375 126.226562 143.9375 L 113.859375 143.9375 C 113.15625 143.9375 112.585938 144.503906 112.585938 145.207031 L 112.585938 252.921875 C 112.585938 253.410156 112.871094 253.859375 113.3125 254.066406 L 124.023438 259.160156 C 124.464844 259.371094 124.992188 259.308594 125.371094 258.996094 L 186.699219 209.09375 C 187.164062 208.714844 187.835938 208.714844 188.304688 209.09375 L 249.628906 258.996094 C 250.007812 259.308594 250.535156 259.371094 250.976562 259.160156 L 261.6875 254.066406 C 262.132812 253.859375 262.414062 253.410156 262.414062 252.921875 L 262.414062 145.207031 C 262.414062 144.503906 261.84375 143.9375 261.140625 143.9375 L 248.773438 143.9375 C 248.070312 143.9375 247.5 144.503906 247.5 145.207031 Z M 155.050781 165.414062 L 155.050781 196.191406 C 155.050781 196.550781 154.886719 196.890625 154.609375 197.117188 L 143.007812 206.554688 C 142.230469 207.1875 141.0625 206.636719 141.0625 205.632812 L 141.0625 150.132812 C 141.0625 149.683594 141.316406 149.273438 141.714844 149.070312 L 151.5 144.066406 C 151.898438 143.863281 152.378906 143.902344 152.742188 144.164062 L 186.800781 168.765625 C 187.21875 169.066406 187.78125 169.066406 188.199219 168.765625 L 222.257812 144.164062 C 222.621094 143.902344 223.101562 143.863281 223.5 144.066406 L 233.285156 149.070312 C 233.683594 149.273438 233.933594 149.683594 233.933594 150.132812 L 233.933594 205.632812 C 233.933594 206.636719 232.769531 207.1875 231.992188 206.554688 L 220.390625 197.117188 C 220.113281 196.890625 219.953125 196.550781 219.953125 196.191406 L 219.953125 165.414062 C 219.953125 164.4375 218.847656 163.875 218.0625 164.445312 L 191.90625 183.335938 C 191.703125 183.480469 191.457031 183.5625 191.207031 183.5625 L 183.792969 183.5625 C 183.542969 183.5625 183.296875 183.480469 183.09375 183.335938 L 156.9375 164.445312 C 156.152344 163.875 155.050781 164.4375 155.050781 165.414062"/></g><g clip-path="url(#b)"><path d="M 139.871094 243.519531 L 230.03125 243.519531 C 231.105469 243.519531 231.695312 244.765625 231.019531 245.597656 L 224.171875 254.011719 L 212.039062 268.921875 L 187.996094 298.464844 C 187.8125 298.695312 187.710938 298.976562 187.710938 299.269531 L 187.710938 307.777344 C 187.710938 308.070312 187.8125 308.351562 187.996094 308.578125 L 212.039062 338.125 L 224.171875 353.035156 L 231.019531 361.449219 C 231.695312 362.28125 231.105469 363.523438 230.03125 363.523438 L 139.871094 363.523438 C 139.167969 363.523438 138.597656 364.09375 138.597656 364.796875 L 138.597656 377.164062 C 138.597656 377.867188 139.167969 378.4375 139.871094 378.4375 L 247.582031 378.4375 C 248.074219 378.4375 248.523438 378.152344 248.730469 377.710938 L 253.824219 367 C 254.035156 366.558594 253.972656 366.03125 253.660156 365.652344 L 203.757812 304.324219 C 203.378906 303.859375 203.378906 303.1875 203.757812 302.71875 L 253.660156 241.394531 C 253.972656 241.015625 254.035156 240.488281 253.824219 240.046875 L 248.730469 229.335938 C 248.523438 228.890625 248.074219 228.609375 247.582031 228.609375 L 139.871094 228.609375 C 139.167969 228.609375 138.597656 229.179688 138.597656 229.882812 L 138.597656 242.25 C 138.597656 242.953125 139.167969 243.519531 139.871094 243.519531 Z M 160.074219 335.972656 L 190.855469 335.972656 C 191.214844 335.972656 191.554688 336.136719 191.78125 336.414062 L 201.21875 348.011719 C 201.851562 348.792969 201.296875 349.957031 200.292969 349.957031 L 144.796875 349.957031 C 144.347656 349.957031 143.9375 349.707031 143.734375 349.308594 L 138.730469 339.523438 C 138.527344 339.125 138.5625 338.644531 138.824219 338.28125 L 163.425781 304.222656 C 163.730469 303.804688 163.730469 303.242188 163.425781 302.824219 L 138.824219 268.765625 C 138.5625 268.402344 138.527344 267.921875 138.730469 267.523438 L 143.734375 257.738281 C 143.9375 257.335938 144.347656 257.089844 144.796875 257.089844 L 200.292969 257.089844 C 201.296875 257.089844 201.851562 258.253906 201.21875 259.03125 L 191.78125 270.632812 C 191.554688 270.910156 191.214844 271.070312 190.855469 271.070312 L 160.074219 271.070312 C 159.101562 271.070312 158.539062 272.175781 159.109375 272.960938 L 177.996094 299.117188 C 178.144531 299.320312 178.222656 299.566406 178.222656 299.816406 L 178.222656 307.230469 C 178.222656 307.480469 178.144531 307.726562 177.996094 307.929688 L 159.109375 334.082031 C 158.539062 334.871094 159.101562 335.972656 160.074219 335.972656"/></g></svg>